<svg version="1" xmlns="http://www.w3.org/2000/svg" width="373.333" height="373.333" viewBox="0 0 280.000000 280.000000"><path d="M122.8 38.5c-.2.2-1.7.6-3.3.9-1.7.3-4.3.8-6 1.1-4.7.9-18.9 5.8-19.6 6.8-.3.5-1 .8-1.5.8s-4.1 1.5-8 3.5c-8.1 4.1-19.6 12.5-26.1 19.3-9.3 9.6-18.7 26.3-18.7 33.3-.1 2.8-.6 4-2.4 4.9-1.3.7-3.6 4.1-5.3 7.8-1.6 3.6-3.4 7.3-3.8 8.1-.4.8-.7 2.3-.5 3.2.1 1-.2 1.8-.7 1.8-.5 0-.8.3-.7.7.1.5-.2 2.8-.6 5.3-.4 2.5-.8 6.2-.9 8.2-.1 2.1-.5 3.8-.9 3.8s-.5.7-.1 1.6c.3.9.1 1.9-.4 2.3-7 4.4-16 14.7-18 20.7-1.6 4.5-.9 11.7 1.3 14.4 6 7.3 9.2 10.3 13.1 12.1l4.4 2-2.4 4.2c-3.4 6-5.4 13.7-3.5 13.7.5 0 .7.4.4.8-1.5 2.5 7.5 13.5 13.9 17 11.6 6.2 27.6 1.7 40.1-11.4l4.1-4.3 3.6 2.5c2 1.3 4.1 2.4 4.6 2.4.6 0 1.1.5 1.1 1.1 0 .5.5.7 1 .4.6-.3 1-.1 1 .4 0 .6.7 1.1 1.5 1.1.9 0 3.4.9 5.7 2 2.2 1.1 4.5 1.7 4.9 1.4.5-.3.9-.1.9.4s.6.9 1.3 1c.6 0 3 .6 5.2 1.2 5.7 1.5 9.4 2.2 14 2.4 2.3.1 4.5.5 5 .8 1.7 1 23.9.6 25.3-.4.8-.7 1.2-.7 1.2.2 0 .8.6.9 1.8.5.9-.4 3.1-.9 4.8-1 4.5-.4 18.8-3.7 19.4-4.4.5-.5 1.8-1 4.5-1.5 2.4-.4 13.2-5.9 16.1-8.1l3.1-2.4 6.4 6c5.6 5.2 15.5 11.4 18.4 11.4.6 0 1.5.3 2 .7.6.3 4 .5 7.6.3 5.6-.2 7.3-.7 11.6-3.6 2.8-1.9 6.1-4.8 7.5-6.4 3.6-4.2 7-10.5 5.7-10.5-.5 0-.7-.6-.3-1.2 1.1-1.8 1.2-4.8.2-4.8-.4 0-.8-.7-.8-1.6 0-.8-1.1-3.5-2.6-5.9l-2.5-4.4 3.8-1.7c2.1-1 4.4-2.4 5.1-3.1.7-.7 1.9-1.6 2.6-2 1.9-1.2 7.6-9.9 7.6-11.7 0-.8.5-1.8 1-2.1.6-.4.7-1.2.3-1.8-.4-.7-.8-1.9-.8-2.7 0-1.8-2.5-8-4-9.8-2.5-3.1-10.3-11-13-13.2-2.4-2-3-3.3-3.1-6.5-.1-5.7-1.3-14.6-2.2-15.9-.3-.6-.7-1.8-.8-2.6 0-.8-.6-2.7-1.2-4.3-.7-1.5-1.7-3.9-2.4-5.5-.6-1.5-1.1-3-1-3.5.1-.4-.2-.7-.7-.7-.5 0-1.3-.9-1.6-2.1-.4-1.1-1.7-2.4-3.1-2.9-2-.8-2.3-1.4-1.8-4 .4-1.8.1-3.6-.6-4.5-.7-.8-.9-1.5-.5-1.5s.2-.6-.4-1.4c-.7-.8-1.4-2.4-1.6-3.6-.2-1.3-1.1-3-1.9-3.9-.7-.9-1.7-2.6-2-3.9-.4-1.2-1.2-2.2-1.7-2.2s-.9-.5-.9-1.1c0-2.2-17.1-20.9-19.1-20.9-.3 0-1.7-.9-3-2.1-2.9-2.5-12.2-8-16.6-9.8-1.8-.7-3.3-1.8-3.3-2.3 0-.5-.6-.8-1.2-.7-.7.1-2.4-.2-3.8-.8-4.1-1.8-7.1-2.9-10.2-3.6-.7-.1-1.7-.5-2.3-.9-.5-.3-2.6-.9-4.5-1.2-1.9-.3-5.5-.9-8-1.4-3.4-.6-4.9-.5-5.8.4-.8.8-2.1 1-3.9.5-3.2-.9-19-.7-19.9.2-.4.3-1.9 0-3.4-.8s-2.9-1.2-3.2-1z"/></svg>